<svg width="235" height="57" viewBox="0 0 235 57" fill="none" xmlns="http://www.w3.org/2000/svg">
<path d="M0 28.3067C0 11.6605 12.0415 0.36438 28.8201 0.36438C31.2715 0.36438 34.021 0.579703 36.6214 1.02691V9.93796C34.2363 9.49076 31.785 9.19262 29.4164 9.19262C17.7558 9.19262 10.0374 16.762 10.0374 28.2901C10.0374 39.8181 17.7558 47.3876 29.4164 47.3876C31.8015 47.3876 34.2529 47.0894 36.6214 46.6422V55.5533C34.021 56.0005 31.2715 56.2158 28.8201 56.2158C12.0415 56.2324 0 44.9362 0 28.3067Z" fill="#00D366"/>
<path d="M41.5242 28.3067C41.5242 11.6606 53.9301 0 69.748 0C85.566 0 97.9719 11.6606 97.9719 28.3067C97.9719 44.9528 85.566 56.6133 69.748 56.6133C53.9301 56.6133 41.5242 44.9528 41.5242 28.3067ZM69.748 47.3213C79.9179 47.3213 87.9511 39.6028 87.9511 28.3067C87.9511 17.0105 79.9344 9.20919 69.748 9.20919C59.5616 9.20919 51.545 17.0105 51.545 28.3067C51.545 39.6028 59.4953 47.3213 69.748 47.3213Z" fill="#00D366"/>
<path d="M107.198 1.04358H122.866C139.579 1.04358 151.388 11.6607 151.388 28.3068C151.388 44.9529 139.579 55.5699 122.866 55.5699H107.198V1.04358ZM122.866 46.3608C133.931 46.3608 141.368 39.6029 141.368 28.3068C141.368 17.0106 133.947 10.2528 122.866 10.2528H116.854V46.3442H122.866V46.3608Z" fill="#00D366"/>
<path d="M160.68 1.04358H190.163V10.0374H170.337V23.1887H189.948V32.1826H170.337V46.5926H190.544V55.5865H160.68V1.04358Z" fill="#00D366"/>
<path d="M212.192 38.6588C216.698 38.6588 219.729 41.8389 219.729 46.6423V51.2966H227.348V55.5533H204.971V46.4766C204.971 41.7561 207.869 38.6422 212.192 38.6422V38.6588ZM212.341 43.048C210.039 43.048 208.499 44.5884 208.499 46.957V51.3131H216.184V46.957C216.184 44.5387 214.644 43.048 212.341 43.048Z" fill="black"/>
<path d="M211.198 19.7435H227.497V23.7022L225.045 23.785C226.768 24.9278 227.795 26.7498 227.795 29.2509C227.795 33.6733 224.432 37.0522 219.414 37.0522C214.296 37.0522 210.884 33.6733 210.884 29.2509C210.884 26.7332 211.91 24.9278 213.633 23.785L211.182 23.7022V19.7435H211.198ZM219.331 23.8512C216.399 23.8512 214.395 25.6732 214.395 28.3233C214.395 30.9734 216.399 32.7954 219.347 32.7954C222.279 32.7954 224.25 31.0066 224.25 28.3233C224.25 25.6566 222.279 23.8512 219.314 23.8512H219.331Z" fill="black"/>
<path d="M211.198 18.0209V13.085C215.19 11.7931 219.182 10.5177 223.157 9.2258C219.165 8.03324 215.174 6.84068 211.198 5.64813V0.811646L229.832 7.80136C231.555 8.44732 232.847 9.3583 233.708 10.5343C234.569 11.7269 235 13.1016 235 14.6917C235 15.4702 234.917 16.2321 234.751 16.9774H231.174C231.306 16.4308 231.373 15.8511 231.373 15.2051C231.373 14.4101 231.124 13.7145 230.644 13.1182C230.163 12.5219 229.418 12.0581 228.441 11.7269L227.629 11.4618L211.232 18.0209H211.198Z" fill="black"/>
</svg>
